<svg width="7972" height="1646" viewBox="0 0 7972 1646" fill="none" xmlns="http://www.w3.org/2000/svg">
<path d="M355.892 1646C241.75 1646 153.899 1621.64 92.3395 1572.91C30.7798 1524.18 0 1461.98 0 1386.32C0 1336.31 10.9012 1286.94 32.7036 1238.21C41.681 1215.13 53.2235 1193.97 67.3309 1174.73C119.913 1161.91 176.984 1150.37 238.544 1140.11C377.053 1117.03 499.531 1102.92 605.978 1097.79V1040.08C605.978 897.741 588.665 799.64 554.037 745.781C519.41 691.922 466.186 664.992 394.367 664.992C367.434 664.992 344.35 668.198 325.112 674.61L298.18 684.228V972.759L273.171 978.53C252.651 981.095 235.338 982.377 221.23 982.377C177.625 982.377 142.357 969.553 115.424 943.906C89.7746 916.977 76.9496 881.711 76.9496 838.111C76.9496 779.122 106.447 729.11 165.442 688.075C225.719 647.039 314.852 626.521 432.842 626.521C532.876 626.521 618.803 644.474 690.623 680.38C763.725 715.004 818.872 763.734 856.065 826.57C894.539 888.123 913.777 959.294 913.777 1040.08V1559.44L1029.2 1588.29V1617.15H856.065C779.115 1617.15 719.479 1593.42 677.157 1545.98C659.202 1526.74 645.094 1502.38 634.834 1472.88C616.879 1504.94 595.718 1533.79 571.351 1559.44C513.639 1617.15 441.819 1646 355.892 1646ZM432.842 1578.68C480.294 1578.68 523.257 1553.03 561.732 1501.73C575.84 1482.5 590.588 1456.85 605.978 1424.79V1145.88C546.984 1145.88 490.554 1149.08 436.689 1155.5C396.932 1160.63 369.999 1163.83 355.892 1165.11C349.48 1179.22 343.067 1198.46 336.655 1222.82C323.83 1271.55 317.417 1319.64 317.417 1367.09C317.417 1438.9 328.318 1492.12 350.121 1526.74C371.923 1561.36 399.497 1578.68 432.842 1578.68Z" fill="#333333"/>
<path d="M2166.7 1434.41V1020.85H1781.96V934.288H2166.7V520.726H2253.27V934.288H2638.02V1020.85H2253.27V1434.41H2166.7Z" fill="#333333"/>
<path d="M3848.76 1646C3762.83 1646 3691.01 1617.15 3633.3 1559.44C3608.93 1533.79 3587.77 1504.94 3569.82 1472.88C3560.84 1501.09 3545.45 1526.74 3523.65 1549.82C3474.91 1601.12 3403.73 1626.76 3310.11 1626.76H3290.87V328.372L3175.45 299.519V270.665H3425.54C3540.96 270.665 3598.67 328.372 3598.67 443.784V703.463C3619.19 686.792 3639.07 673.969 3658.31 664.992C3704.48 639.345 3758.34 626.521 3819.9 626.521C3949.43 626.521 4052.03 670.763 4127.7 759.246C4204.65 846.447 4243.13 972.118 4243.13 1136.26C4243.13 1245.26 4225.81 1338.23 4191.18 1415.17C4156.56 1490.83 4109.75 1548.54 4050.75 1588.29C3991.76 1626.76 3924.43 1646 3848.76 1646ZM3771.81 1578.68C3812.85 1578.68 3846.83 1546.62 3873.77 1482.5C3901.98 1417.1 3916.09 1301.69 3916.09 1136.26C3916.09 963.142 3900.7 844.523 3869.92 780.405C3840.42 716.287 3798.1 684.228 3742.95 684.228C3709.61 684.228 3675.62 697.051 3640.99 722.698C3630.73 730.393 3616.63 743.216 3598.67 761.169V1424.79C3610.21 1454.29 3624.32 1479.93 3640.99 1501.73C3679.47 1553.03 3723.07 1578.68 3771.81 1578.68Z" fill="#333333"/>
<path d="M5267.69 876.582V790.023H6017.95V876.582H5267.69ZM5267.69 1165.11V1078.55H6017.95V1165.11H5267.69Z" fill="#333333"/>
<path d="M6880.08 1646C6715.92 1646 6588.31 1601.12 6497.25 1511.35C6406.2 1420.3 6360.67 1295.27 6360.67 1136.26C6360.67 977.248 6406.2 852.858 6497.25 763.093C6588.31 672.045 6715.92 626.521 6880.08 626.521C6998.07 626.521 7086.56 647.039 7145.55 688.075C7205.83 729.11 7235.97 779.122 7235.97 838.111C7235.97 881.711 7222.5 916.977 7195.57 943.906C7169.92 969.553 7135.29 982.377 7091.69 982.377C7073.73 982.377 7055.78 981.095 7037.82 978.53L7014.74 972.759V684.228L6987.81 674.61C6968.57 668.198 6945.48 664.992 6918.55 664.992C6845.45 664.992 6788.38 699.616 6747.34 768.864C6707.58 838.111 6687.7 960.577 6687.7 1136.26C6687.7 1306.81 6707.58 1426.72 6747.34 1495.96C6788.38 1563.93 6845.45 1597.91 6918.55 1597.91C6968.57 1597.91 7014.74 1586.37 7057.06 1563.29C7100.67 1538.92 7134.65 1507.5 7159.02 1469.03C7184.67 1429.28 7197.49 1388.89 7197.49 1347.85H7245.59C7245.59 1399.14 7230.2 1447.87 7199.42 1494.04C7168.64 1540.2 7125.67 1577.39 7070.53 1605.61C7015.38 1632.54 6951.9 1646 6880.08 1646Z" fill="#333333"/>
<path d="M899.081 584.41L969.218 566.878V52.5969L899.081 35.0647V17.5324H1004.29C1050.26 17.5324 1086.5 32.3374 1113 61.9476C1123.13 73.6357 1131.7 88.0512 1138.71 105.194C1149.62 84.9343 1162.48 67.402 1177.29 52.5969C1212.36 17.5323 1256 0 1308.21 0C1351.85 0 1390.82 9.35058 1425.1 28.0517C1460.17 45.9736 1487.45 69.7397 1506.93 99.3498C1526.41 128.96 1536.15 160.128 1536.15 192.855V566.878L1606.29 584.41V601.943H1454.33C1384.19 601.943 1349.12 566.878 1349.12 496.749V192.855C1349.12 143.765 1340.16 106.363 1322.24 80.6486C1305.09 54.1554 1284.83 40.9088 1261.45 40.9088C1231.84 40.9088 1205.34 56.493 1181.96 87.6615C1171.83 100.908 1163.26 116.492 1156.25 134.414V566.878L1226.38 584.41V601.943H899.081V584.41Z" fill="#333333"/>
<path d="M4292.35 584.41L4362.48 566.878V52.5969L4292.35 35.0647V17.5324H4397.55C4443.53 17.5324 4479.77 32.3374 4506.26 61.9476C4516.39 73.6357 4524.96 88.0512 4531.98 105.194C4542.89 84.9343 4555.75 67.402 4570.55 52.5969C4605.62 17.5323 4649.26 0 4701.47 0C4745.11 0 4784.08 9.35058 4818.37 28.0517C4853.44 45.9736 4880.71 69.7397 4900.19 99.3498C4919.68 128.96 4929.42 160.128 4929.42 192.855V566.878L4999.55 584.41V601.943H4847.59C4777.46 601.943 4742.39 566.878 4742.39 496.749V192.855C4742.39 143.765 4733.43 106.363 4715.5 80.6486C4698.36 54.1554 4678.1 40.9088 4654.72 40.9088C4625.1 40.9088 4598.61 56.493 4575.23 87.6615C4565.1 100.908 4556.53 116.492 4549.51 134.414V566.878L4619.65 584.41V601.943H4292.35V584.41Z" fill="#333333"/>
<path d="M7264.79 584.41L7334.93 566.878V52.5969L7264.79 35.0647V17.5324H7370C7415.97 17.5324 7452.21 32.3374 7478.71 61.9476C7488.84 73.6357 7497.41 88.0512 7504.42 105.194C7515.33 84.9343 7528.19 67.402 7543 52.5969C7578.07 17.5323 7621.71 0 7673.92 0C7717.56 0 7756.53 9.35058 7790.81 28.0517C7825.88 45.9736 7853.16 69.7397 7872.64 99.3498C7892.12 128.96 7901.86 160.128 7901.86 192.855V566.878L7972 584.41V601.943H7820.04C7749.9 601.943 7714.83 566.878 7714.83 496.749V192.855C7714.83 143.765 7705.87 106.363 7687.95 80.6486C7670.8 54.1554 7650.54 40.9088 7627.16 40.9088C7597.55 40.9088 7571.05 56.493 7547.67 87.6615C7537.54 100.908 7528.97 116.492 7521.96 134.414V566.878L7592.09 584.41V601.943H7264.79V584.41Z" fill="#333333"/>
</svg>
